# xmcd CD database file
#
# Track frame offsets:
#	150
#	15392
#	52547
#	71539
#	103432
#	130891
#	170072
#	202339
#	221086
#	235321
#
# Disc length: 3289 seconds
#
# Revision: 0
# Processed by: cddbd v1.5.2PL0 Copyright (c) Steve Scherf et al.
# Submitted via: CDex 1.51
#
DISCID=930cd70a
DTITLE=Lizz Wright, Angelique Kidjo and Dianne Reeves - 2011 Detroit Jazz Festival Sing The Truth!
DYEAR=2011
DGENRE=Blues
TTITLE0=Lizz Wright, Angelique Kidjo, Dianne Reeves  - Bold Soul Sister
TTITLE1=Lizz Wright, Angelique Kidjo, Dianne Reeves  - Freedom Dance
TTITLE2=Lizz Wright, Angelique Kidjo, Dianne Reeves  - Saduva
TTITLE3=Lizz Wright, Angelique Kidjo, Dianne Reeves  - How I Got Over
TTITLE4=Lizz Wright, Angelique Kidjo, Dianne Reeves  - Afirika
TTITLE5=Lizz Wright, Angelique Kidjo, Dianne Reeves  - Music is the Magic..Easy Rider..Pata Pata
TTITLE6=Lizz Wright, Angelique Kidjo, Dianne Reeves  - 32 Flavors
TTITLE7=Lizz Wright, Angelique Kidjo, Dianne Reeves  - Transitions
TTITLE8=Lizz Wright, Angelique Kidjo, Dianne Reeves  - Talkin' About A Revolution
TTITLE9=Lizz Wright, Angelique Kidjo, Dianne Reeves  - Gimme Shelter
EXTD=YEAR: 2011
EXTT0=
EXTT1=
EXTT2=
EXTT3=
EXTT4=
EXTT5=
EXTT6=
EXTT7=
EXTT8=
EXTT9=
PLAYORDER=
